<svg version="1" xmlns="http://www.w3.org/2000/svg" width="933.333" height="933.333" viewBox="0 0 700.000000 700.000000"><path d="M256.2 185.6c-14.1 1.7-19.8 3-33.7 7.5-14.3 4.7-30.4 12.6-42.8 21.2-16.4 11.2-38.1 34.6-47.4 51-9.4 16.7-17.2 38-19.8 53.7-.3 1.9-.8 4.2-1 5-2.2 8.4-2.2 38.7.1 50.5.2 1 .6 3.7 1 5.9.3 2.2.7 4.3.9 4.7.2.3.7 2.1 1 4 1.7 10.1 16.6 45.5 19.7 46.7.4.2.8.8.8 1.4 0 1.7 13.7 19.4 20.8 26.6 23.9 24.7 52.7 39.9 88.2 46.7 16.1 3.1 46.4 2.6 67.5-1.1 2.9-.5 19.2-4.4 26.5-6.4 4.7-1.3 30.8-16.3 41.2-23.6 13.9-9.9 27.4-24.2 41.6-44.3 6.2-8.8 13.9-29.1 18.6-49.1 3.3-13.9 3.8-18.1 4.1-33.2.2-11.3-.1-15.6-2.1-29.3-1.7-11.9-7.5-29.1-14.8-43.5l-5.3-10.5-8.2.2c-8.8.1-14.8 1.7-25.8 6.9-7.1 3.3-16.6 10.2-21.1 15.3-1.3 1.4-3.5 3.9-4.9 5.5l-2.5 2.8 3.5 7.2c5.9 11.7 7.7 17.2 10.3 30.9.7 3.8.7 21.1 0 23.5-.3.9-.8 3.1-1.1 4.8-4.1 24.5-24.9 54.7-46.4 67.4-15.2 8.9-26 11.5-47.6 11.4-7.7 0-15.3-.3-17-.6-35.4-7-64.3-32.2-75.5-65.8-4.6-13.7-6.2-33.6-3.6-45.5 2.6-12.2 5.5-20.6 9.9-28.8 10.9-20.3 30.9-37.4 53.2-45.4 5.4-1.9 21.7-5.3 22.7-4.7 1.4.9 4.6-1.5 6.9-5.3 1.3-2.1 2.5-4 2.8-4.3.4-.3 2.8-3.2 5.6-6.5 8.3-10 16.7-18 33-31.3 1.1-.9 6-4.4 10.8-7.9l8.8-6.2-5.2-1.5c-20.8-6.2-51.2-8.6-73.7-6z"/><path d="M406 188.2c-4.7.4-11 1.3-14 1.9-3 .5-6.6 1.2-8 1.5-2.5.5-14.7 3.5-22.5 5.6-8.4 2.2-32.3 14.9-38.1 20.3-.6.5-3 2.6-5.4 4.5-14.4 11.6-31 32.3-39.6 49.1-4.7 9.4-13 32.5-14.9 41.4-3.5 17.1-4 22.7-3.9 40 0 13.4.8 24.1 1.9 28.5.3.8.7 3.1 1 5 2.9 17.1 14.2 44.8 18.3 45.1 12.3.8 29.8-5 44-14.5 6.8-4.5 19.6-16.3 18.9-17.5-2.9-5.4-8.7-18.2-8.7-19.3 0-.8-.4-1.8-.8-2.4-1.6-1.7-4.3-17.7-4.6-26.4-.5-15.9 3.9-36.8 9.7-46.8 12.5-21.6 33.8-38.9 57.7-46.8 8.1-2.7 9.4-2.9 25.5-2.8 15.4.1 17.8.3 26 2.8 17.2 5.1 30 12.8 42.6 25.5 12 12.1 19 23.2 23.9 38.1 3.8 11.3 4.5 16.1 4.4 31-.1 12.7-1.2 19.2-5.5 31-7.8 21.3-25.6 40.7-47.4 51.8-10 5.1-24.5 9.6-34.3 10.6-2.3.3-8 6.5-8.2 8.9 0 .4-.5 1.3-1 2-.6.7-3.4 4.3-6.2 8.2-10.2 13.8-26.2 28.3-41.7 37.8l-7.2 4.5 4.8 1.6c5.2 1.7 11.6 3.2 21.3 5 17.2 3.3 47.6 2.5 66.5-1.9 49.1-11.3 89.9-43.3 112.3-88 4.5-9 10.4-24.1 11.7-29.8.2-1.2.9-4.1 1.5-6.5.5-2.3 1.3-5.9 1.6-8 .3-2 .8-4 1-4.3.4-.7 1.8-20 1.8-24.9-.2-32.5-10-65.7-27.2-91.5-8.3-12.5-8.3-12.5-21.2-25.5-22.9-23-53-38.8-83.5-43.5-2.2-.4-5.1-.9-6.5-1.1-4.8-.9-37.6-1.1-46-.2z"/></svg>